HIERARCHY
ROOT joint_Root
{
	OFFSET 0.0 0.0 0.0
	CHANNELS 6 Xposition Yposition Zposition Zrotation Xrotation Yrotation 
	JOINT Hips
	{
		OFFSET 4.5925 91.4895 -427.239
		CHANNELS 6 Xposition Yposition Zposition Zrotation Xrotation Yrotation 
		JOINT Spine
		{
			OFFSET 15.7357 0.0 0.0
			CHANNELS 6 Xposition Yposition Zposition Zrotation Xrotation Yrotation 
			JOINT Chest
			{
				OFFSET 8.98455 -0.406207 0.0
				CHANNELS 6 Xposition Yposition Zposition Zrotation Xrotation Yrotation 
				JOINT Neck
				{
					OFFSET 16.3773 0.0 0.0
					CHANNELS 6 Xposition Yposition Zposition Zrotation Xrotation Yrotation 
					JOINT Head
					{
						OFFSET 6.45672 0.0 0.0
						CHANNELS 6 Xposition Yposition Zposition Zrotation Xrotation Yrotation 
						End Site
						{
							OFFSET 0.0 0.0 0.0
						}
					}
				}
				JOINT Shoulder_L
				{
					OFFSET 12.9942 -0.242716 4.98039
					CHANNELS 6 Xposition Yposition Zposition Zrotation Xrotation Yrotation 
					JOINT UpperArm_L
					{
						OFFSET 5.34809 0.0 0.0
						CHANNELS 6 Xposition Yposition Zposition Zrotation Xrotation Yrotation 
						JOINT LowerArm_L
						{
							OFFSET 24.3286 1.87007e-05 0.0
							CHANNELS 6 Xposition Yposition Zposition Zrotation Xrotation Yrotation 
							JOINT Hand_L
							{
								OFFSET 22.2916 0.0 0.0
								CHANNELS 6 Xposition Yposition Zposition Zrotation Xrotation Yrotation 
								End Site
								{
									OFFSET 0.0 0.0 0.0
								}
							}
						}
					}
				}
				JOINT Shoulder_R
				{
					OFFSET 12.9945 -0.242716 -4.98039
					CHANNELS 6 Xposition Yposition Zposition Zrotation Xrotation Yrotation 
					JOINT UpperArm_R
					{
						OFFSET -5.34813 0.0 0.0
						CHANNELS 6 Xposition Yposition Zposition Zrotation Xrotation Yrotation 
						JOINT LowerArm_R
						{
							OFFSET -24.3289 0.000322201 0.0
							CHANNELS 6 Xposition Yposition Zposition Zrotation Xrotation Yrotation 
							JOINT Hand_R
							{
								OFFSET -22.2915 -0.000108084 0.0
								CHANNELS 6 Xposition Yposition Zposition Zrotation Xrotation Yrotation 
								End Site
								{
									OFFSET 0.0 0.0 0.0
								}
							}
						}
					}
				}
			}
		}
		JOINT UpperLeg_L
		{
			OFFSET -2.19248 -6.46944 0.0
			CHANNELS 6 Xposition Yposition Zposition Zrotation Xrotation Yrotation 
			JOINT LowerLeg_L
			{
				OFFSET 39.0811 0.0 -1.23785e-05
				CHANNELS 6 Xposition Yposition Zposition Zrotation Xrotation Yrotation 
				JOINT Foot_L
				{
					OFFSET 40.9854 0.0 -1.26872e-05
					CHANNELS 6 Xposition Yposition Zposition Zrotation Xrotation Yrotation 
					JOINT Toes_L
					{
						OFFSET 11.7543 0.0 0.0
						CHANNELS 6 Xposition Yposition Zposition Zrotation Xrotation Yrotation 
						End Site
						{
							OFFSET 0.0 0.0 0.0
						}
					}
				}
			}
		}
		JOINT UpperLeg_R
		{
			OFFSET -2.19251 6.46944 0.0
			CHANNELS 6 Xposition Yposition Zposition Zrotation Xrotation Yrotation 
			JOINT LowerLeg_R
			{
				OFFSET -39.0811 -0.00228153 -0.0401928
				CHANNELS 6 Xposition Yposition Zposition Zrotation Xrotation Yrotation 
				JOINT Foot_R
				{
					OFFSET -40.9854 0.0 0.0
					CHANNELS 6 Xposition Yposition Zposition Zrotation Xrotation Yrotation 
					JOINT Toes_R
					{
						OFFSET -11.7543 0.0 0.0
						CHANNELS 6 Xposition Yposition Zposition Zrotation Xrotation Yrotation 
						End Site
						{
							OFFSET 0.0 0.0 0.0
						}
					}
				}
			}
		}
	}
}
MOTION
Frames:	4
Frame Time:	0.0333333
0.000000 0.000000 0.000000 0.000000 0.000000 -0.000000 -5.885530 88.938500 -53.598100 90.632300 -6.471820 5.480680 15.735700 0.000005 -0.000001 129.167000 86.354400 -128.955000 8.984550 -0.406207 -0.000000 -2.123930 4.585480 0.508980 16.377300 -0.000001 -0.000001 -3.068960 -4.906520 6.101580 6.456720 -0.000001 -0.000000 -8.054190 -8.566020 11.946200 12.994200 -0.242716 4.980390 -89.895800 -0.307943 -71.297200 5.348090 -0.000007 -0.000001 -69.400000 12.042000 10.178100 24.328600 0.000019 0.000005 2.134630 28.238100 -4.504480 22.291600 -0.000001 0.000005 11.157300 4.983910 7.659690 12.994500 -0.242716 -4.980390 88.955500 8.227910 -82.739700 -5.348130 -0.000001 -0.000004 -51.317600 20.321800 -27.890500 -24.328900 0.000322 -0.000009 -0.679506 -0.712246 -43.620500 -22.291500 -0.000108 -0.000004 19.662100 5.446830 -4.526690 -2.192480 -6.469440 -0.000000 -177.456000 -7.089100 -23.822200 39.081100 -0.000007 -0.000012 -0.007791 0.015267 27.038400 40.985400 -0.000006 -0.000013 -2.080130 7.825330 -52.113000 11.754300 -0.000000 0.000003 -0.003088 -0.041602 -18.268700 -2.192510 6.469440 -0.000001 170.536000 21.927800 -169.506000 -39.081100 -0.002282 -0.040193 -0.041029 0.081039 28.681200 -40.985400 0.000008 0.000006 8.938260 14.431800 -77.516500 -11.754300 -0.000006 -0.000006 -1.899630 -2.093110 -22.350300
0.000000 0.000000 0.000000 0.000000 0.000000 -0.000000 -5.234540 88.630200 -50.068100 90.644900 -7.120040 4.938790 15.735700 0.000005 -0.000001 131.907000 86.451700 -131.756000 8.984550 -0.406207 -0.000000 -2.494230 4.724960 0.405450 16.377300 -0.000001 -0.000001 -3.423720 -4.620510 5.797980 6.456720 -0.000001 -0.000000 -8.936170 -8.322620 11.876000 12.994200 -0.242716 4.980390 -90.034900 0.102563 -71.227200 5.348090 -0.000007 -0.000001 -68.873300 12.397000 10.065800 24.328600 0.000019 0.000005 1.590970 29.200400 -3.258400 22.291600 -0.000001 0.000005 10.924200 4.953070 8.302010 12.994500 -0.242716 -4.980390 88.930700 8.542130 -82.838000 -5.348130 -0.000001 -0.000004 -50.806800 19.679300 -28.629400 -24.328900 0.000322 -0.000009 -0.674158 -0.628056 -46.972500 -22.291500 -0.000108 -0.000004 20.047100 5.450870 -4.670440 -2.192480 -6.469440 -0.000000 -178.159000 -7.436770 -25.123900 39.081100 -0.000007 -0.000012 -0.003466 0.006194 29.235700 40.985400 -0.000006 -0.000013 -1.117310 5.589450 -50.859100 11.754300 -0.000000 0.000003 -0.002483 -0.034614 -17.984300 -2.192510 6.469440 -0.000001 169.635000 19.981200 -168.991000 -39.081100 -0.002282 -0.040193 -0.037318 0.069935 30.149100 -40.985400 0.000008 0.000006 8.243130 14.210400 -75.804000 -11.754300 -0.000006 -0.000006 -0.526694 -0.657446 -24.191600
0.000000 0.000000 0.000000 0.000000 0.000000 -0.000000 -4.425620 88.342000 -45.953900 90.715300 -8.061820 4.518560 15.735700 0.000005 -0.000001 136.694000 86.569000 -136.605000 8.984550 -0.406207 -0.000000 -3.068550 4.982960 0.310547 16.377300 -0.000001 -0.000001 -3.332220 -4.157310 5.312450 6.456720 -0.000001 -0.000000 -9.235000 -7.859600 11.699600 12.994200 -0.242716 4.980390 -90.276000 0.790236 -70.751200 5.348090 -0.000007 -0.000001 -68.244100 12.515300 9.643160 24.328600 0.000019 0.000005 1.423410 30.234400 -2.824980 22.291600 -0.000001 0.000005 10.762500 4.921760 8.940680 12.994500 -0.242716 -4.980390 88.809800 9.123730 -82.535600 -5.348130 -0.000001 -0.000004 -50.426100 19.991800 -28.544600 -24.328900 0.000322 -0.000009 -1.110450 -0.957347 -49.206400 -22.291500 -0.000108 -0.000004 20.235300 5.457640 -4.915020 -2.192480 -6.469440 -0.000000 -178.578000 -7.403700 -25.833700 39.081100 -0.000007 -0.000012 -0.038271 0.054263 35.196100 40.985400 -0.000006 -0.000013 -0.335461 4.412710 -55.189300 11.754300 -0.000000 0.000003 -0.000680 -0.010752 -17.014200 -2.192510 6.469440 -0.000001 168.683000 17.280900 -168.176000 -39.081100 -0.002282 -0.040193 -0.021009 0.039661 31.502900 -40.985400 0.000008 0.000006 7.182050 13.640400 -73.539700 -11.754300 -0.000006 -0.000006 -0.043770 -0.274802 -27.872800
0.000000 0.000000 0.000000 0.000000 0.000000 -0.000000 -3.515050 88.112500 -41.571400 91.070500 -8.706010 4.245900 15.735700 0.000005 -0.000001 140.934000 86.714100 -141.035000 8.984550 -0.406207 -0.000000 -3.626970 5.109600 -0.040409 16.377300 -0.000001 -0.000001 -3.059100 -3.727050 4.803270 6.456720 -0.000001 -0.000000 -9.382450 -7.335630 11.358200 12.994200 -0.242716 4.980390 -90.584400 1.615860 -70.114200 5.348090 -0.000007 -0.000001 -67.620800 12.616300 8.751390 24.328600 0.000019 0.000005 1.646260 29.884000 -3.301310 22.291600 -0.000001 0.000005 10.769700 4.923880 8.898090 12.994500 -0.242716 -4.980390 88.627200 9.779320 -81.969400 -5.348130 -0.000001 -0.000004 -50.684800 20.784800 -27.288000 -24.328900 0.000322 -0.000009 -1.322630 -1.085150 -50.615100 -22.291500 -0.000108 -0.000004 20.160000 5.463420 -5.126290 -2.192480 -6.469440 -0.000000 -179.427000 -5.935260 -25.354700 39.081100 -0.000007 -0.000012 -0.096228 0.115528 39.792900 40.985400 -0.000006 -0.000013 0.073332 2.309270 -60.656800 11.754300 -0.000000 0.000003 -0.000020 -0.000248 -16.587200 -2.192510 6.469440 -0.000001 167.842000 14.101700 -167.613000 -39.081100 -0.002282 -0.040193 0.009472 -0.009418 33.259800 -40.985400 0.000008 0.000006 6.352010 12.141300 -70.052800 -11.754300 -0.000006 -0.000006 -0.083021 -0.400311 -33.205900
